<svg width="17.409241" height="9.169434" viewBox="0 0 17.4092 9.16943" fill="none" xmlns="http://www.w3.org/2000/svg" xmlns:xlink="http://www.w3.org/1999/xlink">
	<desc>
			ArrowDown
	</desc>
	<defs/>
	<path id="Vector" d="M16.2 0.2L8.7 7.51L1.2 0.2C1.07 0.07 0.89 0 0.7 0C0.51 0 0.33 0.07 0.2 0.2C0.14 0.26 0.08 0.34 0.05 0.42C0.01 0.51 0 0.6 0 0.69C0 0.78 0.01 0.87 0.05 0.95C0.08 1.04 0.14 1.11 0.2 1.18L8.18 8.95C8.32 9.09 8.5 9.16 8.7 9.16C8.89 9.16 9.08 9.09 9.22 8.95L17.2 1.18C17.26 1.11 17.32 1.04 17.35 0.95C17.39 0.87 17.4 0.78 17.4 0.69C17.4 0.6 17.39 0.51 17.35 0.42C17.32 0.34 17.26 0.26 17.2 0.2C17.06 0.07 16.88 0 16.7 0C16.51 0 16.33 0.07 16.2 0.2L16.2 0.2Z" fill="#151317" fill-opacity="1.000000" fill-rule="nonzero"/>
</svg>
