<svg width="6.998734" height="14.001221" viewBox="0 0 6.99873 14.0012" fill="none" xmlns="http://www.w3.org/2000/svg" xmlns:xlink="http://www.w3.org/1999/xlink">
	<desc>
			Кнопка назад
	</desc>
	<defs/>
	<path id="Vector" d="M5.83 14C5.68 14 5.54 13.96 5.4 13.9C5.27 13.84 5.15 13.74 5.05 13.63L0.22 7.63C0.08 7.45 0 7.22 0 6.99C0 6.76 0.08 6.54 0.22 6.36L5.22 0.36C5.39 0.15 5.64 0.02 5.9 0C6.16 -0.03 6.43 0.06 6.63 0.23C6.84 0.4 6.97 0.64 6.99 0.9C7.01 1.17 6.93 1.43 6.76 1.64L2.29 7L6.61 12.36C6.73 12.5 6.81 12.68 6.84 12.87C6.86 13.06 6.83 13.25 6.75 13.43C6.67 13.6 6.54 13.74 6.37 13.84C6.21 13.95 6.02 14 5.83 14Z" fill="#F8F8F8" fill-opacity="1.000000" fill-rule="nonzero"/>
</svg>
