<svg width="21.000000" height="15.000000" viewBox="0 0 21 15" fill="none" xmlns="http://www.w3.org/2000/svg" xmlns:xlink="http://www.w3.org/1999/xlink">
	<desc>
			Кнопка выхода
	</desc>
	<defs/>
	<path id="Vector" d="M19.5 0L1.5 0C1.1 0 0.72 0.15 0.43 0.43C0.15 0.72 0 1.1 0 1.5L0 13.5C0 13.89 0.15 14.27 0.43 14.56C0.72 14.84 1.1 15 1.5 15L19.5 15C19.89 15 20.27 14.84 20.56 14.56C20.84 14.27 21 13.89 21 13.5L21 1.5C21 1.1 20.84 0.72 20.56 0.43C20.27 0.15 19.89 0 19.5 0ZM17.85 1.5L10.5 6.58L3.15 1.5L17.85 1.5ZM1.5 13.5L1.5 2.18L10.07 8.11C10.19 8.2 10.34 8.24 10.5 8.24C10.65 8.24 10.8 8.2 10.92 8.11L19.5 2.18L19.5 13.5L1.5 13.5Z" fill="#512689" fill-opacity="1.000000" fill-rule="nonzero"/>
</svg>