<svg width="18.000000" height="18.000000" viewBox="0 0 18 18" fill="none" xmlns="http://www.w3.org/2000/svg" xmlns:xlink="http://www.w3.org/1999/xlink">
	<desc>
			Created with Pixso.
	</desc>
	<defs/>
	<path id="Vector" d="M7.79 13.29C8.17 13.67 8.81 13.67 9.2 13.29L12.79 9.69C12.88 9.6 12.95 9.49 13 9.37C13.05 9.25 13.08 9.12 13.08 8.99C13.08 8.86 13.05 8.73 13 8.61C12.95 8.49 12.88 8.38 12.79 8.29L9.2 4.69C9.01 4.51 8.75 4.4 8.49 4.4C8.23 4.4 7.97 4.51 7.79 4.69C7.6 4.88 7.49 5.14 7.49 5.4C7.49 5.66 7.6 5.92 7.79 6.11L9.67 8L1 8C0.45 8 0 8.44 0 9C0 9.55 0.45 10 1 10L9.67 10L7.79 11.87C7.39 12.27 7.41 12.9 7.79 13.29ZM16 0L2 0C1.46 0 0.96 0.21 0.58 0.58C0.21 0.96 0 1.46 0 2L0 5C0 5.55 0.45 6 1 6C1.54 6 2 5.55 2 5L2 3C2 2.44 2.45 2 3 2L15 2C15.55 2 16 2.44 16 3L16 15C16 15.55 15.55 16 15 16L3 16C2.45 16 2 15.55 2 15L2 13C2 12.45 1.54 12 1 12C0.45 12 0 12.45 0 13L0 16C0 17.1 0.89 18 2 18L16 18C17.1 18 18 17.1 18 16L18 2C18 0.89 17.1 0 16 0Z" fill="#fff" fill-opacity="1.000000" fill-rule="nonzero"/>
</svg>
