<?xml version="1.0" encoding="UTF-8" standalone="no"?>
<svg
   width="21.499939"
   height="17.506104"
   viewBox="0 0 21.4999 17.5061"
   fill="none"
   version="1.1"
   id="svg1"
   sodipodi:docname="passwordEye.svg"
   xmlns:inkscape="http://www.inkscape.org/namespaces/inkscape"
   xmlns:sodipodi="http://sodipodi.sourceforge.net/DTD/sodipodi-0.dtd"
   xmlns="http://www.w3.org/2000/svg"
   xmlns:svg="http://www.w3.org/2000/svg">
  <sodipodi:namedview
     id="namedview1"
     pagecolor="#ffffff"
     bordercolor="#000000"
     borderopacity="0.25"
     inkscape:showpageshadow="2"
     inkscape:pageopacity="0.0"
     inkscape:pagecheckerboard="0"
     inkscape:deskcolor="#d1d1d1" />
  <defs
     id="defs1">
    <inkscape:path-effect
       effect="fillet_chamfer"
       id="path-effect1"
       is_visible="true"
       lpeversion="1"
       nodesatellites_param="F,0,0,1,0,0,0,1 @ F,0,0,1,0,0,0,1 @ F,0,0,1,0,0,0,1 @ F,0,0,1,0,0,0,1 | F,0,0,1,0,0,0,1 @ F,0,0,1,0,0,0,1 @ F,0,0,1,0,0,0,1 @ F,0,0,1,0,0,0,1 @ F,0,0,1,0,0,0,1 @ F,0,0,1,0,0,0,1 @ F,0,0,1,0,0,0,1"
       radius="0"
       unit="px"
       method="auto"
       mode="F"
       chamfer_steps="1"
       flexible="false"
       use_knot_distance="true"
       apply_no_radius="true"
       apply_with_radius="true"
       only_selected="false"
       hide_knots="false" />
  </defs>
  <path
     id="Vector"
     d="M12.87 10.87C12.32 11.41 11.57 11.75 10.74 11.75C9.09 11.75 7.74 10.4 7.74 8.75C7.74 7.92 8.08 7.17 8.62 6.63M9.48 1.82C9.89 1.77 10.31 1.75 10.74 1.75C15.41 1.75 19.14 4.65 20.74 8.75C20.35 9.76 19.83 10.7 19.19 11.54M16.23 14.23C14.64 15.19 12.78 15.75 10.74 15.75C6.08 15.75 2.35 12.85 0.74 8.75C1.65 6.44 3.22 4.51 5.26 3.27"
     stroke="#000"
     stroke-opacity="1.000000"
     stroke-width="1.500000"
     stroke-linejoin="round" />
  <path
     id="path1"
     d="m 12.87,10.87 c -0.55,0.54 -1.3,0.88 -2.13,0.88 -1.65,0 -3,-1.35 -3,-3 0,-0.83 0.34,-1.58 0.88,-2.12 M 9.48,1.82 c 0.41,-0.05 0.83,-0.07 1.26,-0.07 4.67,0 8.4,2.9 10,7 -0.39,1.01 -0.91,1.95 -1.55,2.79 m -2.96,2.69 c -1.59,0.96 -3.45,1.52 -5.49,1.52 -4.66,0 -8.39,-2.9 -10,-7 C 1.65,6.44 3.22,4.51 5.26,3.27"
     stroke="#000"
     stroke-opacity="1.000000"
     stroke-width="1.500000"
     stroke-linejoin="round"
     inkscape:path-effect="#path-effect1"
     inkscape:original-d="M12.87 10.87C12.32 11.41 11.57 11.75 10.74 11.75C9.09 11.75 7.74 10.4 7.74 8.75C7.74 7.92 8.08 7.17 8.62 6.63M9.48 1.82C9.89 1.77 10.31 1.75 10.74 1.75C15.41 1.75 19.14 4.65 20.74 8.75C20.35 9.76 19.83 10.7 19.19 11.54M16.23 14.23C14.64 15.19 12.78 15.75 10.74 15.75C6.08 15.75 2.35 12.85 0.74 8.75C1.65 6.44 3.22 4.51 5.26 3.27" />
</svg>
