<svg width="21.499939" height="17.506104" viewBox="0 0 21.4999 17.5061" fill="none" xmlns="http://www.w3.org/2000/svg" xmlns:xlink="http://www.w3.org/1999/xlink">
	<defs/>
	<path id="Vector" d="M12.87 10.87C12.32 11.41 11.57 11.75 10.74 11.75C9.09 11.75 7.74 10.4 7.74 8.75C7.74 7.92 8.08 7.17 8.62 6.63M9.48 1.82C9.89 1.77 10.31 1.75 10.74 1.75C15.41 1.75 19.14 4.65 20.74 8.75C20.35 9.76 19.83 10.7 19.19 11.54M16.23 14.23C14.64 15.19 12.78 15.75 10.74 15.75C6.08 15.75 2.35 12.85 0.74 8.75C1.65 6.44 3.22 4.51 5.26 3.27" stroke="#000" stroke-opacity="1.000000" stroke-width="1.500000" stroke-linejoin="round"/>
	<path id="Vector 134" d="M2.75 0.75L18.75 16.75" stroke="#000" stroke-opacity="1.000000" stroke-width="1.500000" stroke-linecap="round"/>
</svg>
