<svg width="22.067444" height="22.068848" viewBox="0 0 22.0674 22.0688" fill="none" xmlns="http://www.w3.org/2000/svg" xmlns:xlink="http://www.w3.org/1999/xlink">
	<defs/>
	<path id="Vector" d="M6.23 1.33C5.84 0.88 5.13 0.88 4.68 1.34L1.89 4.12C1.07 4.95 0.83 6.18 1.31 7.17C4.17 13.1 8.95 17.88 14.87 20.75C15.85 21.23 17.08 20.99 17.91 20.16L20.72 17.35C21.18 16.9 21.18 16.18 20.72 15.79L16.8 12.42C16.39 12.07 15.76 12.12 15.34 12.53L13.98 13.89C13.91 13.97 13.82 14.02 13.72 14.03C13.62 14.05 13.52 14.03 13.43 13.98C11.2 12.7 9.35 10.85 8.07 8.62C8.02 8.53 8 8.42 8.02 8.32C8.03 8.22 8.08 8.13 8.16 8.06L9.52 6.7C9.93 6.29 9.97 5.65 9.62 5.24L9.62 5.24L6.23 1.33Z" stroke="#512689" stroke-opacity="1.000000" stroke-width="2.000000" stroke-linejoin="round"/>
</svg>
